<?xml version="1.0" standalone="no"?>
<!DOCTYPE svg PUBLIC "-//W3C//DTD SVG 20010904//EN"
 "http://www.w3.org/TR/2001/REC-SVG-20010904/DTD/svg10.dtd">
<svg version="1.0" xmlns="http://www.w3.org/2000/svg"
 width="700.000000pt" height="700.000000pt" viewBox="0 0 700.000000 700.000000"
 preserveAspectRatio="xMidYMid meet">
<metadata>
Created by potrace 1.14, written by Peter Selinger 2001-2017
</metadata>
<g transform="translate(0.000000,700.000000) scale(0.100000,-0.100000)"
fill="#000000" stroke="none">
<path d="M3030 6984 c-1012 -141 -1904 -704 -2466 -1554 -291 -442 -480 -949
-549 -1473 -21 -166 -21 -748 0 -914 132 -1008 700 -1915 1555 -2479 444 -293
951 -481 1480 -550 103 -13 193 -15 510 -11 360 4 394 6 528 31 795 144 1453
503 1999 1091 485 522 805 1204 898 1918 21 165 21 749 0 914 -140 1073 -776
2028 -1719 2582 -345 203 -748 349 -1178 427 -136 25 -162 27 -548 30 -315 2
-428 0 -510 -12z m857 -109 c1465 -169 2654 -1262 2943 -2705 86 -427 87 -895
4 -1321 -173 -890 -704 -1682 -1466 -2186 -1014 -670 -2314 -744 -3403 -193
-786 398 -1388 1087 -1676 1920 -256 738 -246 1566 28 2300 222 595 626 1136
1133 1519 527 397 1153 632 1813 681 155 11 459 4 624 -15z"/>
<path d="M3341 5799 c-473 -42 -905 -268 -1221 -639 -63 -74 -177 -240 -201
-293 -7 -15 -22 -29 -33 -32 -12 -2 -60 -11 -107 -19 -121 -23 -227 -59 -354
-121 -402 -195 -683 -560 -781 -1015 -26 -120 -27 -429 -1 -550 111 -521 471
-928 967 -1094 226 -76 94 -71 2005 -71 1900 0 1760 -5 1963 66 685 240 1003
1041 669 1683 -81 157 -240 336 -385 434 -137 94 -325 169 -477 192 -44 7 -90
14 -101 16 -16 3 -23 14 -28 45 -13 80 -78 265 -136 384 -281 582 -829 958
-1475 1014 -134 12 -168 12 -304 0z m426 -504 c464 -103 831 -429 977 -865 19
-58 54 -199 77 -315 23 -115 43 -211 44 -213 1 -1 94 -9 206 -17 249 -18 325
-34 438 -90 295 -148 449 -489 366 -810 -8 -33 -33 -96 -55 -140 -84 -171
-222 -292 -412 -363 l-73 -27 -1680 -3 c-1243 -2 -1699 0 -1755 9 -345 53
-648 317 -754 655 -163 524 143 1079 669 1213 44 11 150 28 235 36 85 9 158
19 162 23 4 4 41 72 83 152 43 80 100 179 129 220 58 86 215 248 296 307 172
124 380 210 589 243 85 13 374 4 458 -15z"/>
<path d="M2030 3540 l0 -240 240 0 240 0 0 240 0 240 -240 0 -240 0 0 -240z"/>
<path d="M2760 3540 l0 -240 1120 0 1120 0 0 240 0 240 -1120 0 -1120 0 0
-240z"/>
<path d="M2030 2875 l0 -245 240 0 240 0 0 245 0 245 -240 0 -240 0 0 -245z"/>
<path d="M2760 2875 l0 -245 1120 0 1120 0 0 245 0 245 -1120 0 -1120 0 0
-245z"/>
<path d="M2030 1540 l0 -240 240 0 240 0 0 240 0 240 -240 0 -240 0 0 -240z"/>
<path d="M2760 1535 l0 -245 1120 0 1120 0 0 245 0 245 -1120 0 -1120 0 0
-245z"/>
</g>
</svg>
