<?xml version="1.0" standalone="no"?>
<!DOCTYPE svg PUBLIC "-//W3C//DTD SVG 20010904//EN"
 "http://www.w3.org/TR/2001/REC-SVG-20010904/DTD/svg10.dtd">
<svg version="1.0" xmlns="http://www.w3.org/2000/svg"
 width="700.000000pt" height="700.000000pt" viewBox="0 0 700.000000 700.000000"
 preserveAspectRatio="xMidYMid meet">
<metadata>
Created by potrace 1.14, written by Peter Selinger 2001-2017
</metadata>
<g transform="translate(0.000000,700.000000) scale(0.100000,-0.100000)"
fill="#000000" stroke="none">
<path d="M3356 6983 c-6 -14 -5 -15 5 -6 7 7 10 15 7 18 -3 3 -9 -2 -12 -12z"/>
<path d="M3190 6980 c0 -5 5 -10 10 -10 6 0 10 5 10 10 0 6 -4 10 -10 10 -5 0
-10 -4 -10 -10z"/>
<path d="M3310 6981 c0 -6 4 -13 10 -16 6 -3 7 1 4 9 -7 18 -14 21 -14 7z"/>
<path d="M3625 6980 c-3 -6 1 -7 9 -4 18 7 21 14 7 14 -6 0 -13 -4 -16 -10z"/>
<path d="M3094 6959 c0 -12 4 -15 12 -9 6 6 14 7 17 3 4 -3 7 -2 7 4 0 6 -8
13 -18 15 -12 4 -18 -1 -18 -13z"/>
<path d="M3146 6966 c2 -6 13 -12 24 -12 23 0 17 12 -9 19 -12 3 -18 0 -15 -7z"/>
<path d="M3508 6973 c7 -3 16 -2 19 1 4 3 -2 6 -13 5 -11 0 -14 -3 -6 -6z"/>
<path d="M3835 6971 c-3 -5 -2 -12 3 -15 5 -3 9 1 9 9 0 17 -3 19 -12 6z"/>
<path d="M3005 6960 c-4 -6 -11 -7 -17 -4 -7 4 -8 2 -4 -4 9 -15 -6 -16 -21
-1 -8 8 -13 8 -17 0 -8 -13 -9 -13 32 -16 18 -1 30 0 27 3 -3 3 0 11 6 19 6 7
9 13 6 13 -3 0 -9 -5 -12 -10z"/>
<path d="M3026 6954 c-4 -9 -4 -19 -1 -22 3 -3 5 -1 5 5 0 5 7 10 15 10 8 0
15 -4 15 -9 0 -8 -11 -10 -67 -12 -18 0 -33 -5 -33 -11 -1 -5 -9 0 -19 13 -13
15 -21 18 -24 10 -4 -10 -6 -10 -6 -1 -1 9 -8 10 -23 4 -13 -4 -31 -7 -41 -5
-10 1 -21 -4 -24 -13 -4 -11 -8 -12 -13 -3 -5 8 -13 9 -21 4 -17 -10 -38 -16
-64 -15 -10 0 -24 -4 -30 -8 -5 -5 -18 -7 -27 -6 -10 2 -20 -1 -24 -6 -3 -5
-10 -7 -15 -4 -5 4 -10 1 -10 -4 -1 -6 -2 -17 -3 -23 -1 -7 -9 -12 -19 -12 -9
1 -17 -2 -17 -6 0 -7 -22 -7 -40 0 -3 1 -9 2 -13 1 -5 -1 -6 3 -2 9 5 7 11 8
19 1 7 -6 18 -6 25 -1 8 4 19 6 26 4 6 -3 12 1 12 9 0 7 -11 13 -23 13 -12 0
-20 -4 -17 -9 3 -5 -4 -6 -15 -3 -11 4 -23 2 -27 -4 -3 -6 -11 -8 -16 -5 -5 3
-6 -1 -3 -9 3 -8 11 -17 17 -19 7 -2 4 -3 -5 -2 -10 2 -18 -1 -18 -7 0 -5 -4
-7 -9 -4 -5 4 -11 0 -14 -6 -3 -7 -4 -3 -4 8 1 15 6 20 16 16 9 -3 12 -1 7 6
-10 16 -18 15 -42 -4 -10 -8 -13 -13 -7 -9 9 4 11 1 7 -10 -6 -14 -8 -14 -19
2 -12 16 -14 16 -38 0 -18 -11 -24 -23 -21 -35 5 -14 4 -14 -4 -2 -6 8 -8 18
-6 22 7 11 6 11 -50 -11 -28 -10 -53 -27 -57 -37 -7 -17 -8 -17 -8 -2 -1 17
-3 17 -38 2 -21 -9 -50 -23 -65 -30 -14 -8 -33 -14 -42 -14 -9 0 -16 -4 -16
-10 0 -5 -9 -10 -19 -10 -11 0 -27 -7 -35 -16 -9 -8 -16 -13 -16 -10 0 4 -24
-6 -52 -21 -29 -15 -55 -27 -58 -28 -5 -1 -93 -47 -135 -70 -11 -7 -19 -17
-17 -24 1 -7 -2 -9 -9 -6 -11 8 -79 -24 -79 -37 0 -5 -5 -8 -12 -8 -10 0 -185
-113 -228 -147 -8 -6 -51 -40 -95 -74 -340 -264 -650 -624 -875 -1014 -47 -81
-170 -327 -170 -339 0 -3 -11 -29 -24 -58 -40 -91 -113 -300 -140 -408 -4 -14
-13 -51 -22 -82 -8 -32 -17 -68 -19 -80 -3 -13 -11 -57 -20 -98 -22 -115 -30
-160 -41 -255 -26 -230 -26 -667 1 -826 2 -13 6 -46 9 -74 9 -78 22 -152 51
-285 69 -324 255 -784 418 -1038 26 -40 47 -75 47 -78 0 -2 4 -10 10 -17 5 -7
46 -64 91 -126 72 -103 179 -238 234 -297 330 -354 629 -586 1015 -786 337
-175 740 -303 1109 -354 25 -3 57 -8 71 -10 163 -25 682 -25 842 1 13 2 46 7
73 10 72 10 86 12 120 19 17 3 44 8 60 11 341 65 741 212 1039 384 49 28 93
51 97 51 5 0 9 5 9 10 0 6 5 10 10 10 15 0 220 141 330 227 152 118 324 280
450 422 36 41 70 79 75 85 6 6 36 45 68 86 31 41 61 80 65 85 86 107 277 429
266 447 -4 6 -2 8 3 5 9 -5 44 49 48 73 0 3 9 20 19 39 16 29 16 38 6 55 -12
19 -11 20 3 8 9 -8 18 -9 21 -3 4 5 -1 14 -10 19 -15 8 -15 10 0 15 10 4 15 3
11 -3 -3 -6 -2 -10 3 -10 10 0 27 47 23 66 -1 7 5 14 14 17 8 4 12 13 9 22 -3
8 -2 15 3 15 5 0 14 16 20 35 11 35 7 41 -21 36 -5 -1 -4 5 4 13 14 18 25 22
15 6 -3 -5 1 -10 9 -10 9 0 16 4 16 9 0 14 -26 32 -35 23 -5 -4 -5 -1 0 6 5
10 10 11 18 3 18 -18 31 -13 16 6 -12 15 -12 16 4 10 11 -4 16 -3 12 3 -3 6
-1 10 5 10 6 0 9 4 6 9 -4 5 3 30 14 55 10 25 16 46 13 46 -4 0 -2 5 5 12 15
15 15 28 1 28 -5 0 -8 -4 -5 -9 3 -5 -1 -11 -9 -15 -8 -3 -17 0 -21 6 -5 7 -2
8 6 3 10 -6 12 -4 7 9 -4 10 -3 15 3 11 7 -4 9 3 6 19 -3 18 -1 23 10 19 8 -3
14 -9 14 -15 0 -5 -5 -6 -12 -2 -7 4 -8 3 -4 -5 4 -6 12 -9 17 -6 14 9 11 35
-5 41 -15 6 -16 21 -3 42 5 6 6 16 3 20 -3 5 1 9 9 9 8 0 12 -4 9 -9 -3 -5 -7
-21 -10 -36 -4 -25 -3 -26 11 -8 8 10 12 23 8 29 -3 5 1 13 8 18 12 7 12 9 0
9 -11 0 -11 3 0 17 8 9 15 24 15 35 1 10 2 19 4 21 7 9 7 37 -1 37 -8 0 -13
-15 -10 -32 0 -5 -5 -8 -12 -8 -8 0 -7 -4 3 -10 12 -7 12 -10 1 -10 -8 0 -11
-6 -7 -16 4 -10 2 -13 -6 -8 -7 4 -8 3 -4 -4 4 -7 2 -12 -4 -12 -11 0 -5 40
11 71 5 9 5 19 2 23 -3 3 0 6 8 6 11 0 11 2 -1 10 -8 5 -10 10 -4 10 5 0 11
11 12 25 3 46 5 55 13 55 4 0 6 11 4 25 -2 24 4 29 35 26 13 -2 13 -1 0 8 -8
5 -17 8 -21 5 -4 -2 -10 0 -14 6 -3 5 -1 10 5 10 7 0 9 7 6 16 -5 12 -1 14 17
8 12 -3 19 -3 15 1 -4 5 -2 15 4 24 10 13 10 14 -2 4 -8 -7 -21 -13 -29 -13
-14 1 -13 3 2 14 17 13 24 32 8 22 -5 -3 -8 5 -7 19 0 14 4 25 7 25 3 0 4 18
3 40 -1 22 2 43 7 46 5 3 7 10 4 15 -4 5 -1 9 4 9 6 0 11 -5 11 -12 0 -6 3 -8
7 -4 5 4 1 13 -8 19 -15 11 -22 87 -8 87 3 0 4 22 3 49 -3 41 0 50 19 60 22
11 22 11 0 6 -16 -4 -21 -2 -19 10 1 9 9 21 17 26 12 7 11 9 -2 9 -19 0 -19
38 0 49 10 7 10 9 -1 13 -14 6 -18 84 -4 106 4 7 2 12 -6 12 -9 0 -9 3 2 10
12 8 12 10 1 10 -11 0 -11 3 -1 15 7 8 17 12 23 8 6 -3 7 -1 3 5 -4 6 -13 9
-21 6 -15 -6 -15 12 -1 35 6 10 5 12 -2 7 -7 -4 -12 -3 -12 3 0 5 5 13 10 16
6 3 10 12 10 18 0 7 -4 6 -10 -3 -7 -11 -10 -5 -11 25 -1 53 -7 150 -9 150 -1
0 -3 16 -6 35 -2 19 -6 46 -8 60 -2 14 -7 43 -10 65 -3 22 -9 56 -12 75 -3 19
-8 49 -9 65 -2 17 -4 31 -5 33 -2 1 -3 5 -5 10 -1 4 -5 15 -9 24 -5 10 -9 35
-9 57 -1 21 -5 37 -9 34 -5 -2 -8 9 -8 25 0 16 -3 32 -7 36 -4 3 -8 15 -10 25
-6 43 -106 331 -148 429 -51 117 -188 379 -248 475 -344 546 -805 970 -1372
1257 -93 48 -219 106 -280 129 -60 23 -119 46 -130 51 -65 29 -344 107 -390
109 -16 1 -17 3 -5 11 11 7 7 8 -14 6 -16 -2 -48 1 -70 7 -23 5 -50 10 -61 12
-11 1 -20 3 -20 5 0 1 -18 3 -40 5 -88 9 -141 18 -152 28 -7 5 -13 5 -13 0 0
-4 -18 -7 -40 -5 -22 2 -38 8 -35 12 3 5 0 12 -6 16 -8 4 -9 3 -5 -4 6 -11 -6
-17 -27 -13 -4 1 -32 2 -62 2 -30 1 -52 5 -50 9 4 7 -24 6 -32 0 -7 -6 -50 -5
-68 0 -10 4 -34 4 -52 0 -18 -5 -36 -4 -39 1 -3 5 -9 7 -14 4 -15 -9 -79 -12
-74 -3 3 4 0 8 -5 8 -6 0 -11 -3 -11 -8 0 -4 -22 -8 -50 -9 -27 -1 -50 3 -50
8 0 5 -5 9 -11 9 -5 0 -8 -4 -5 -9 3 -5 -7 -11 -24 -13 -17 -3 -27 0 -23 5 4
6 1 7 -8 1 -8 -5 -27 -10 -44 -10 -16 -1 -43 -4 -58 -7 -25 -5 -27 -4 -22 16
4 15 4 18 -3 8 -7 -9 -12 -10 -16 -2 -10 16 -23 14 -30 -5z m-116 -39 c0 -8
-5 -15 -11 -15 -5 0 -7 5 -4 10 3 6 -1 10 -10 10 -9 0 -14 -4 -10 -9 3 -6 -6
-8 -21 -5 -17 3 -23 1 -19 -6 5 -7 0 -11 -11 -10 -11 1 -21 1 -24 0 -3 -1 -16
-3 -30 -4 -14 -1 -31 -6 -39 -11 -10 -5 -16 -4 -19 4 -3 10 -6 10 -12 1 -4 -6
-13 -12 -21 -13 -8 -2 -20 -6 -27 -11 -19 -11 -27 1 -13 18 7 8 21 13 31 11
11 -2 22 0 25 5 3 4 21 6 40 4 24 -2 33 1 29 8 -4 6 -3 8 4 4 6 -3 14 -2 17 4
5 8 11 7 21 -1 11 -9 15 -8 19 2 8 20 85 23 85 4z m-483 -110 c0 -8 -4 -12 -9
-9 -5 3 -6 10 -3 15 9 13 12 11 12 -6z m-22 -15 c3 -5 1 -10 -4 -10 -6 0 -11
5 -11 10 0 6 2 10 4 10 3 0 8 -4 11 -10z m-60 -10 c-3 -5 -12 -10 -20 -10 -7
0 -15 -6 -18 -12 -3 -9 -8 -10 -13 -3 -5 6 -8 9 -6 8 2 0 15 5 30 13 32 17 35
17 27 4z m-155 -60 c0 -5 -4 -10 -10 -10 -5 0 -10 5 -10 10 0 6 5 10 10 10 6
0 10 -4 10 -10z m4625 -4294 c-8 -12 -15 -25 -17 -31 -2 -5 -7 -9 -11 -7 -5 1
-6 -6 -2 -17 3 -12 0 -21 -10 -25 -11 -4 -14 -2 -8 6 4 7 8 21 9 32 0 11 6 22
13 24 6 2 9 8 5 13 -3 5 0 9 6 9 6 0 9 4 6 8 -3 5 1 9 9 9 11 0 11 -4 0 -21z
m-65 -186 c0 -5 -4 -10 -10 -10 -5 0 -10 5 -10 10 0 6 5 10 10 10 6 0 10 -4
10 -10z m-20 -30 c0 -5 -2 -10 -4 -10 -3 0 -8 5 -11 10 -3 6 -1 10 4 10 6 0
11 -4 11 -10z m-33 -92 c-3 -8 -6 -5 -6 6 -1 11 2 17 5 13 3 -3 4 -12 1 -19z
m-93 -196 c3 -5 -1 -9 -9 -9 -8 0 -12 4 -9 9 3 4 7 8 9 8 2 0 6 -4 9 -8z
m-134 -226 c0 -2 -8 -10 -17 -17 -16 -13 -17 -12 -4 4 13 16 21 21 21 13z"/>
<path d="M6950 3846 c0 -2 7 -7 16 -10 8 -3 12 -2 9 4 -6 10 -25 14 -25 6z"/>
<path d="M6976 3518 c3 -5 10 -6 15 -3 13 9 11 12 -6 12 -8 0 -12 -4 -9 -9z"/>
<path d="M6974 3486 c1 -8 5 -18 8 -22 4 -3 5 1 4 10 -1 8 -5 18 -8 22 -4 3
-5 -1 -4 -10z"/>
<path d="M6966 3283 c-6 -14 -5 -15 5 -6 7 7 10 15 7 18 -3 3 -9 -2 -12 -12z"/>
<path d="M6970 3219 c0 -5 5 -7 10 -4 6 3 10 8 10 11 0 2 -4 4 -10 4 -5 0 -10
-5 -10 -11z"/>
<path d="M6949 3101 c0 -3 -2 -14 -4 -23 -2 -12 2 -15 13 -10 11 4 12 7 3 10
-8 3 -7 8 5 16 15 12 15 13 0 13 -9 0 -16 -3 -17 -6z"/>
<path d="M6959 3055 c-1 -3 -2 -8 -3 -12 -1 -5 -5 -14 -9 -20 -5 -7 -3 -21 3
-30 11 -17 11 -17 6 0 -3 11 -3 24 1 30 9 14 13 37 7 37 -2 0 -5 -2 -5 -5z"/>
<path d="M6922 2858 c-2 -24 -8 -43 -17 -58 -13 -20 -15 -41 -4 -34 5 3 9 1 9
-5 0 -5 -5 -12 -10 -14 -6 -3 -5 -4 2 -3 7 2 14 9 14 17 1 8 3 16 4 19 1 3 3
16 5 30 1 14 6 33 10 43 4 9 3 17 -2 17 -5 0 -10 -6 -11 -12z"/>
</g>
</svg>
